PathFileType	4	(X/Y/Z)	C:/Users/beibeiliu/ov580/test_trc/User2\sequence.36_training_dense_left.trc
DataRate	CameraRate	NumFrames	NumMarkers	Units	OrigDataRate	OrigDataStartFrame	OrigNumFrames
120	120	17	19	mm	120	188	500
Frame#	Time	ThumbCMC			ThumbMCP			ThumbIP			ThumbTip			IndexMCP			IndexPIP			IndexTip			MiddleMCP			MiddlePIP			MiddleTip			RingMCP			RingPIP			RingTip			PinkyMCP			PinkyPIP			PinkyTip			BackHand1			BackHand2			BackHand3	
		X0	Y0	Z0	X1	Y1	Z1	X2	Y2	Z2	X3	Y3	Z3	X4	Y4	Z4	X5	Y5	Z5	X6	Y6	Z6	X7	Y7	Z7	X8	Y8	Z8	X9	Y9	Z9	X10	Y10	Z10	X11	Y11	Z11	X12	Y12	Z12	X13	Y13	Z13	X14	Y14	Z14	X15	Y15	Z15	X16	Y16	Z16	X17	Y17	Z17	X18	Y18	Z18	
187	1.55833	-224.993	-30.4759	72.246	-205.471	-11.402	46.8916	-178.537	-2.95614	20.9157	-152.976	-10.7717	11.7084	-191.296	-73.6159	7.61898	-172.542	-63.4295	-14.1011	-152.92	-30.1824	-10.1495	-174.44	-82.9168	10.0057	-147.382	-64.662	-7.38992	-138.137	-30.0388	3.52852	-156.751	-85.7035	23.6332	-137.2	-67.7019	7.59914	-130.614	-35.4996	15.073	-142.475	-86.1501	49.1537	-125.102	-68.4921	27.3922	-123.19	-36.9048	26.6283	-188.925	-87.5624	77.9786	-201.028	-84.6142	109.473	-221.047	-75.7621	77.5602	
188	1.56667	-228.592	-31.9353	70.2926	-209.498	-11.7799	42.2868	-182.893	-5.33493	17.969	-155.536	-13.5444	12.0386	-193.312	-75.2693	8.04988	-173.571	-63.5189	-14.535	-155.782	-31.0552	-9.09869	-172.544	-85.212	16.0142	-150.33	-64.287	-8.17779	-143.116	-23.9299	3.95954	-153.6	-86.8867	26.8326	-134.257	-67.165	8.77451	-134.698	-31.4904	16.1889	-143.301	-83.5493	46.5481	-125.427	-67.9195	28.216	-122.262	-37.0928	26.4852	-184.424	-91.7616	80.6453	-202.979	-84.1533	112.61	-221.186	-77.9343	76.5894	
189	1.575	-229.908	-34.1955	69.2145	-210.998	-16.8232	43.8037	-187.579	-4.91877	18.0909	-158.067	-12.5039	8.89073	-196.667	-76.3994	8.99761	-173.814	-63.1653	-15.2061	-161.472	-31.2776	-11.2693	-173.628	-85.2637	14.014	-149.255	-64.9584	-7.44991	-143.456	-25.5989	5.3295	-155.817	-85.3569	24.0612	-133.523	-63.649	8.31315	-137.321	-28.292	15.9226	-142.386	-83.1085	47.2328	-129.778	-65.038	26.783	-127.739	-32.4811	24.2302	-188.966	-89.3782	83.3302	-202.539	-85.4304	113.234	-222.993	-76.0301	77.8354	
190	1.58333	-232.862	-34.5945	68.2017	-212.85	-16.2139	40.0845	-187.659	-8.27918	15.9158	-160.911	-14.6473	8.94814	-195.197	-77.2478	10.8674	-172.353	-65.6334	-10.5275	-163.133	-29.2647	-7.2014	-172.354	-85.5966	13.4344	-151.033	-61.4498	-9.39995	-144.413	-26.2093	4.53179	-152.713	-85.5099	29.8396	-138.361	-64.5865	7.83315	-137.174	-28.8395	18.0742	-145.592	-80.7227	51.5205	-130.76	-62.3996	25.7366	-131.059	-28.8962	23.6901	-182.271	-89.5197	81.1182	-198.329	-85.7966	110.312	-224.984	-77.0125	80.3828	
191	1.59167	-230.647	-37.9586	69.078	-216.704	-17.574	43.3389	-191.173	-10.8094	19.6711	-162.06	-20.3073	14.7082	-193.906	-77.2364	9.57294	-172.587	-62.6999	-12.6639	-163.691	-30.2854	-3.55439	-172.634	-85.0109	13.6524	-149.424	-64.1902	-6.64393	-145.92	-23.4568	4.96716	-157.02	-83.9766	23.9407	-137.526	-61.9131	9.1452	-139.87	-28.584	20.6355	-147.889	-79.2079	48.3464	-131.857	-62.3403	25.8416	-136.194	-28.1254	28.083	-184.144	-91.0619	82.0149	-199.416	-87.0491	109.735	-221.378	-78.9644	82.2471	
192	1.6	-234.259	-34.6591	69.9391	-215.592	-18.1983	40.7976	-188.12	-15.1086	18.9784	-158.142	-23.745	14.1107	-194.164	-77.2203	6.99838	-172.518	-63.6577	-9.46358	-168.09	-26.2589	-2.40304	-174.283	-83.9145	15.2844	-149.916	-62.2497	-5.2886	-144.359	-24.4879	4.2744	-154.875	-83.7175	26.2022	-138.36	-60.9727	8.83156	-145.833	-26.6347	21.6473	-144.804	-80.8303	50.3738	-130.849	-61.5848	26.8744	-133.01	-27.964	30.032	-186.875	-89.1599	84.0636	-205.193	-84.417	112.102	-223.997	-77.9242	80.3696	
193	1.60833	-235.387	-34.6775	71.4502	-213.829	-18.7478	44.3327	-186.033	-15.5122	18.5143	-159.303	-23.6886	14.4023	-193.314	-76.3259	5.96733	-173.7	-59.6763	-11.5203	-165.315	-26.5006	1.83469	-172.188	-81.2281	10.3934	-149.998	-60.4169	-5.92236	-143.847	-22.5911	6.28483	-153.491	-83.1624	25.1444	-139.528	-59.3632	9.22608	-142.641	-28.842	22.4311	-149.44	-79.1992	50.0869	-131.252	-59.9033	26.7376	-135.268	-24.535	33.7559	-184.252	-89.9805	80.7322	-201.425	-88.5502	112.497	-225.066	-77.7541	78.0492	
194	1.61667	-230.36	-35.9709	69.6085	-213.761	-17.3043	42.2378	-187.4	-12.2396	21.9879	-159.686	-25.2934	20.155	-192.344	-75.2702	7.89925	-171.542	-56.2581	-11.3913	-167.405	-26.7451	-1.12213	-173.527	-80.4481	11.2028	-149.306	-56.1025	-7.18158	-143.16	-22.3315	6.22512	-155.673	-82.7038	27.6181	-138.342	-61.0599	9.84303	-145.482	-24.8998	25.4468	-146.94	-79.2709	49.6394	-133.327	-55.5783	26.4644	-137.788	-24.9897	34.4888	-185.367	-89.4731	82.7626	-201.631	-84.9519	111.232	-223.466	-78.0727	80.8334	
195	1.625	-231.248	-34.0022	72.3652	-213.087	-15.8533	45.5872	-185.502	-10.8749	19.8016	-158.059	-18.9069	19.0367	-194.34	-75.2084	9.25127	-169.757	-56.6164	-11.1303	-167.323	-25.4983	1.32724	-171.075	-81.2456	10.9732	-148.215	-60.3396	-6.00927	-146.82	-18.794	6.78315	-152.834	-81.8924	28.4234	-136.338	-60.1605	10.2392	-142.243	-26.6396	23.5016	-145.378	-77.4667	47.1069	-133.293	-58.0393	26.4133	-139.849	-24.6349	34.8281	-185.166	-89.7939	80.9466	-200.551	-85.6018	107.652	-220.865	-79.523	76.2781	
196	1.63333	-227.963	-35.92	71.5345	-211.815	-14.3695	46.5378	-184.2	-5.61391	22.6191	-152.161	-18.9903	18.2661	-193.346	-75.5899	7.61147	-170.822	-60.8104	-10.4327	-165.411	-26.0162	2.15875	-170.94	-82.1969	13.6646	-146.413	-56.5836	-5.64807	-150.603	-17.9878	6.64331	-152.016	-81.6325	25.6464	-139.632	-55.8614	7.39121	-145.584	-25.0738	22.531	-145.14	-76.4492	47.4647	-131.392	-55.2965	25.643	-136.249	-23.7864	34.5673	-181.894	-89.3176	81.7752	-198.359	-87.4089	110.501	-223.354	-77.6392	78.3571	
197	1.64167	-229.686	-34.1573	68.2574	-209.079	-12.766	46.6312	-178.297	-7.31078	23.6503	-150.17	-13.595	17.7594	-191.098	-75.6903	5.02787	-168.176	-57.0344	-11.4214	-166.22	-26.2758	-0.636956	-167.988	-83.0525	13.7285	-150.522	-58.881	-7.87778	-152.533	-19.455	10.0578	-152.282	-81.2802	25.3745	-138.58	-57.9339	8.02168	-142.151	-26.3567	24.4139	-143.841	-76.8516	47.0856	-129.778	-54.9267	26.5863	-134.145	-24.8799	30.9811	-182.566	-88.3818	79.6195	-198.451	-83.9734	111.972	-218.515	-78.7196	76.2747	
198	1.65	-230.33	-31.6685	69.9132	-205.658	-13.7812	46.2801	-178.848	-4.6697	25.203	-149.398	-13.0658	17.2532	-191.153	-74.5675	8.16497	-170.217	-57.3058	-14.3486	-162.756	-25.794	0.77744	-165.369	-82.7196	10.5117	-145.123	-55.8386	-4.54677	-152.112	-21.1821	13.257	-149.826	-82.9103	28.2802	-132.912	-58.0636	10.8832	-141.879	-27.5736	22.7755	-142.162	-78.6236	50.6833	-126.449	-57.6512	27.5579	-130.566	-26.766	32.5285	-180.533	-89.9638	78.6446	-198.818	-84.2515	108.94	-220.661	-78.1546	78.5515	
199	1.65833	-224.629	-34.4767	68.8585	-204.733	-15.5524	43.6411	-176.782	-6.20622	19.7475	-152.712	-10.2828	15.1444	-186.188	-75.8625	6.82541	-166.844	-58.325	-11.2952	-161.919	-24.4303	-0.152872	-167.591	-83.0453	10.0577	-145.579	-59.7616	-4.01359	-146.248	-24.4572	14.7939	-151.419	-83.3683	26.8706	-134.766	-61.1347	10.5643	-139.699	-28.0004	26.48	-138.472	-80.6451	46.5506	-127.266	-60.3015	28.0791	-127.767	-28.9867	35.3459	-184.028	-88.044	77.4689	-198.951	-85.4406	109.511	-222.34	-78.0574	72.8423	
200	1.66667	-226.519	-34.0931	67.2893	-208.579	-15.4023	41.7552	-184.136	-4.38664	16.6801	-157.868	-11.2415	10.7966	-184.839	-76.2126	6.43567	-166.946	-59.4155	-12.0847	-160.368	-24.2599	-1.14587	-166.082	-84.2702	16.1897	-145.157	-55.8774	-5.41478	-144.652	-24.679	17.4537	-153.808	-83.9292	28.6118	-132.671	-64.2552	11.6808	-139.68	-29.002	25.4844	-142.114	-80.983	49.9463	-125.797	-60.4721	29.3518	-126.965	-27.169	36.3009	-183.69	-88.736	82.7863	-198.657	-85.6154	111.579	-220.191	-78.1637	79.8336	
201	1.675	-229.659	-34.5484	67.0139	-218.928	-13.3806	41.1801	-196.785	-6.33678	15.7603	-169.74	-8.85116	3.47613	-185.953	-75.7784	10.058	-163.061	-57.5979	-9.80812	-158.346	-27.7299	-0.255931	-168.099	-83.5863	13.138	-144.048	-55.7153	-2.61881	-143.89	-23.4786	16.7344	-147.562	-85.936	28.4089	-129.818	-60.8463	14.3738	-137.081	-27.6168	29.6055	-139.226	-82.9301	50.0227	-122.227	-58.2879	29.8156	-127.314	-29.6143	37.8334	-182.607	-91.018	79.7321	-202.225	-84.6585	111.588	-222.085	-78.0761	79.8613	
202	1.68333	-233.655	-35.5751	71.4107	-220.811	-23.9638	40.3253	-204.699	-14.4225	11.7451	-181.4	-13.1221	-5.18686	-189.918	-75.7435	9.8137	-165.435	-58.1107	-11.5686	-158.048	-28.3139	2.36354	-169.632	-83.8845	15.0274	-145.388	-56.0482	-3.81174	-142.986	-25.4455	18.4972	-151.917	-84.5333	27.5358	-133.787	-64.0072	12.7583	-138.37	-30.421	26.8655	-138.875	-82.4326	48.2793	-123.541	-62.7292	31.7009	-127.792	-29.8968	37.6179	-184.866	-89.9568	79.0479	-202.956	-86.5897	109.637	-219.663	-77.8437	76.3809	
203	1.69167	-234.846	-38.42	67.731	-227.249	-25.1251	36.3448	-212.65	-18.1093	6.0379	-189.824	-20.6539	-6.72851	-187.298	-76.8625	10.0969	-167.329	-59.7705	-11.2173	-159.789	-27.2053	4.82274	-168.913	-84.0172	15.9814	-146.456	-57.611	-2.61436	-148.826	-24.6298	17.2222	-148.704	-85.239	30.8257	-132.989	-58.4521	14.6352	-139.027	-27.575	32.4958	-141.156	-83.1673	52.7146	-124.123	-60.0687	31.8308	-131.522	-32.5757	38.5624	-182.872	-91.8068	80.4681	-199.957	-87.8517	113.186	-222.933	-76.8287	75.3684	
